# xmcd CD database file
#
# Track frame offsets:
#	150
#	10607
#	27006
#	39703
#	53673
#	69957
#	82944
#	101104
#	114708
#	135450
#	151617
#	167797
#	181844
#	193453
#	209285
#	219742
#	236141
#	249128
#	265412
#	279016
#	295196
#	306805
#	320775
#	338935
#
# Disc length: 4793 seconds
#
# Revision: 0
# Processed by: cddbd v1.4PL0 Copyright (c) Steve Scherf et al.
# Submitted via: CDex 1.50
#
DISCID=5212b718
DTITLE=Garth Brooks - Sevens  {Zetroc Tunes Edition}
DYEAR=1997
DGENRE=Country
TTITLE0=Long Neck Bottle
TTITLE1=How You Ever Gonna Know
TTITLE2=She's Gonna Make It
TTITLE3=I Don't Have to Wonder 
TTITLE4=Two Pina Coladas 
TTITLE5=Cowboy Cadillac 
TTITLE6=Fit for a King 
TTITLE7=Do What You Gotta Do
TTITLE8=You Move Me
TTITLE9=In Another's Eyes 
TTITLE10=When There's No One Around 
TTITLE11=A Friend to Me 
TTITLE12=Take the Keys to My Heart 
TTITLE13=Belleau Wood
TTITLE14=Long Neck Bottle
TTITLE15=How You Ever Gonna Know
TTITLE16=Cowboy Cadillac 
TTITLE17=Two Pina Coladas 
TTITLE18=Do What You Gotta Do
TTITLE19=In Another's Eyes 
TTITLE20=Take the Keys to My Heart 
TTITLE21=I Don't Have to Wonder 
TTITLE22=Fit for a King 
TTITLE23=You Move Me
EXTD=YEAR: 1997
EXTT0=
EXTT1=
EXTT2=
EXTT3=
EXTT4=
EXTT5=
EXTT6=
EXTT7=
EXTT8=
EXTT9=
EXTT10=
EXTT11=
EXTT12=
EXTT13=
EXTT14=
EXTT15=
EXTT16=
EXTT17=
EXTT18=
EXTT19=
EXTT20=
EXTT21=
EXTT22=
EXTT23=
PLAYORDER=
